<svg width="24" height="24" viewBox="0 0 24 24" fill="none" xmlns="http://www.w3.org/2000/svg">
<path d="M18.18 9L16.48 1.98C16.19 0.795 15.44 0 14.6 0H12V3H14.6L16.06 9H11.25L10.89 7.5H12V4.5H7V7.5H8.75L10.57 15H9.9C9.46 11.655 7.59 9.18 5.25 9.015C2.45 8.805 0 12.3 0 16.5C0 20.7 2.2 24 5 24C7.46 24 9.45 21.465 9.9 18H14.1C14.54 21.345 16.41 23.82 18.75 23.985C21.55 24.18 24 20.7 24 16.485C24 12.285 21.8 8.985 19 8.985H18.18V9ZM7.82 18C7.42 19.755 6.33 21 5 21C3.32 21 2 19.02 2 16.5C2 13.98 3.32 12 5 12C6.33 12 7.42 13.245 7.82 15H5V18H7.82ZM14.1 15H12.7L11.97 12H15C14.56 12.87 14.24 13.875 14.1 15ZM19 21C17.32 21 16 19.02 16 16.5C16 15.105 16.41 13.905 17.05 13.08L18.01 17.04L19.89 16.02L18.92 12.015C18.95 12.015 18.98 12 19.01 12C20.69 12 22.01 13.98 22.01 16.5C22.01 19.02 20.68 21 19 21Z" fill="#9F5815"/>
</svg>
