<svg width="30" height="30" viewBox="0 0 30 30" fill="none" xmlns="http://www.w3.org/2000/svg">
<path opacity="0.3" d="M25 5H5V21.4625L6.4625 20H25V5ZM17.5 17.5H7.5V15H17.5V17.5ZM22.5 13.75H7.5V11.25H22.5V13.75ZM22.5 10H7.5V7.5H22.5V10Z" fill="#EA7B16"/>
<path d="M25 22.5C26.375 22.5 27.5 21.375 27.5 20V5C27.5 3.625 26.375 2.5 25 2.5H5C3.625 2.5 2.5125 3.625 2.5125 5L2.5 27.5L7.5 22.5H25ZM5 21.4625V5H25V20H6.4625L5 21.4625ZM7.5 15H17.5V17.5H7.5V15ZM7.5 11.25H22.5V13.75H7.5V11.25ZM7.5 7.5H22.5V10H7.5V7.5Z" fill="#EA7B16"/>
</svg>
