<svg width="30" height="30" viewBox="0 0 30 30" fill="none" xmlns="http://www.w3.org/2000/svg">
<path opacity="0.3" d="M15 5C9.4875 5 5 9.4875 5 15C5 20.5125 9.4875 25 15 25C20.5125 25 25 20.5125 25 15C25 9.4875 20.5125 5 15 5ZM16.25 21.25H13.75V13.75H16.25V21.25ZM16.25 11.25H13.75V8.75H16.25V11.25Z" fill="#EA7B16"/>
<path d="M13.75 8.75H16.25V11.25H13.75V8.75ZM13.75 13.75H16.25V21.25H13.75V13.75ZM15 2.5C8.1 2.5 2.5 8.1 2.5 15C2.5 21.9 8.1 27.5 15 27.5C21.9 27.5 27.5 21.9 27.5 15C27.5 8.1 21.9 2.5 15 2.5ZM15 25C9.4875 25 5 20.5125 5 15C5 9.4875 9.4875 5 15 5C20.5125 5 25 9.4875 25 15C25 20.5125 20.5125 25 15 25Z" fill="#EA7B16"/>
</svg>
