<svg width="30" height="30" viewBox="0 0 30 30" fill="none" xmlns="http://www.w3.org/2000/svg">
<path opacity="0.3" d="M15 8.125C11.8875 8.125 10 10.65 10 13.75V21.25H20V13.75C20 10.65 18.1125 8.125 15 8.125Z" fill="#C4C4C4"/>
<path d="M15 27.5C16.375 27.5 17.5 26.375 17.5 25H12.5C12.5 26.375 13.625 27.5 15 27.5ZM22.5 13.75C22.5 9.9125 20.4625 6.7 16.875 5.85V5C16.875 3.9625 16.0375 3.125 15 3.125C13.9625 3.125 13.125 3.9625 13.125 5V5.85C9.54998 6.7 7.49998 9.9 7.49998 13.75V20L4.99998 22.5V23.75H25V22.5L22.5 20V13.75ZM20 21.25H9.99998V13.75C9.99998 10.65 11.8875 8.125 15 8.125C18.1125 8.125 20 10.65 20 13.75V21.25ZM9.47498 5.1L7.68748 3.3125C4.68748 5.6 2.71248 9.125 2.53748 13.125H5.03748C5.22498 9.8125 6.92498 6.9125 9.47498 5.1ZM24.9625 13.125H27.4625C27.275 9.125 25.3 5.6 22.3125 3.3125L20.5375 5.1C23.0625 6.9125 24.775 9.8125 24.9625 13.125Z" fill="#C4C4C4"/>
</svg>
