<?xml version="1.0" standalone="no"?>
<!DOCTYPE svg PUBLIC "-//W3C//DTD SVG 20010904//EN"
 "http://www.w3.org/TR/2001/REC-SVG-20010904/DTD/svg10.dtd">
<svg version="1.0" xmlns="http://www.w3.org/2000/svg"
 width="202" height="192" viewBox="0 0 600.000000 600.000000"
 preserveAspectRatio="xMidYMid meet">

<g transform="translate(0.000000,600.000000) scale(0.100000,-0.100000)"
fill="#000000" stroke="none">
<path d="M2162 5471 c-26 -20 -56 -44 -67 -53 -11 -10 -63 -51 -115 -93 -52
-42 -111 -89 -130 -105 -39 -31 -257 -207 -274 -221 -6 -5 -37 -30 -69 -56
-52 -42 -57 -49 -56 -82 2 -24 -6 -50 -24 -78 -15 -24 -27 -45 -27 -48 0 -3
-11 -22 -23 -43 -61 -96 -99 -178 -99 -212 0 -19 6 -82 13 -140 15 -133 15
-142 -5 -219 -15 -59 -15 -74 -1 -190 9 -69 22 -182 30 -251 33 -296 38 -335
49 -343 6 -4 20 -5 31 -3 21 5 194 27 405 51 69 8 175 22 235 31 61 9 125 18
143 20 45 7 40 19 -15 44 -34 15 -59 20 -88 16 -22 -3 -110 -10 -195 -15 -85
-6 -199 -15 -253 -22 -54 -6 -101 -9 -104 -5 -3 3 9 35 26 72 79 166 60 370
-53 564 -33 57 -34 127 -5 260 11 52 25 115 30 139 5 24 22 60 39 80 17 20 34
41 38 46 4 6 59 78 121 160 62 83 117 154 122 159 5 6 37 1 81 -12 40 -12 129
-37 198 -57 69 -20 130 -38 137 -40 6 -2 21 -30 32 -62 12 -32 26 -67 31 -78
28 -62 54 -126 71 -174 11 -30 25 -64 33 -75 7 -12 16 -33 20 -49 3 -15 17
-51 31 -80 13 -28 38 -88 55 -132 17 -44 38 -95 47 -113 17 -35 18 -30 -72
-309 -3 -7 -15 -13 -28 -13 -23 0 -25 -4 -29 -60 -3 -46 -9 -64 -24 -74 -14
-10 -21 -28 -22 -58 -2 -23 -7 -44 -13 -46 -5 -2 -10 -56 -11 -120 -1 -64 -3
-99 -5 -78 l-4 39 -87 -7 c-48 -3 -150 -13 -227 -21 -77 -9 -180 -20 -230 -25
-49 -5 -91 -13 -92 -17 -2 -5 -41 -6 -88 -4 -90 3 -115 -5 -115 -40 0 -12 -9
-19 -27 -21 l-28 -3 -3 -96 -3 -97 -49 -4 c-77 -8 -80 -13 -80 -144 l0 -114
48 -21 c26 -12 55 -26 64 -30 10 -5 27 -9 38 -9 11 0 20 -6 20 -13 0 -19 -33
-47 -54 -47 -28 0 -15 -33 19 -49 17 -8 47 -14 68 -13 30 1 37 -3 37 -18 0
-10 9 -25 21 -33 12 -9 25 -34 30 -59 14 -63 43 -119 79 -153 30 -29 36 -30
127 -32 l96 -2 26 -40 c49 -76 85 -80 386 -51 169 16 178 15 267 -31 10 -5 23
-9 29 -9 6 0 25 -6 42 -14 58 -25 172 -66 184 -66 6 0 10 -8 9 -17 -1 -12 16
-22 59 -36 90 -28 89 -28 95 -93 5 -56 7 -59 33 -62 23 -3 32 -13 51 -55 13
-29 40 -68 60 -87 l37 -35 120 -3 c67 -2 131 -1 143 2 32 8 87 64 115 116 22
43 26 45 60 42 48 -5 245 35 591 119 47 12 126 30 175 40 50 10 108 23 130 29
22 7 69 17 105 24 104 21 100 16 100 111 0 105 -4 115 -44 115 l-31 0 3 329 3
328 -32 149 c-17 82 -34 166 -38 187 -7 32 -6 37 11 37 26 0 33 24 18 63 -31
79 -35 85 -60 90 -14 3 -61 12 -105 21 -44 8 -114 22 -155 31 -41 10 -93 21
-115 25 -22 5 -60 13 -85 19 -27 6 -240 10 -527 11 l-483 0 -27 -42 -28 -42
-3 63 c-3 53 -6 64 -23 68 -16 5 -19 14 -19 69 0 62 -1 65 -27 70 -25 5 -31
14 -51 82 -12 42 -30 107 -39 145 l-16 67 33 41 c35 45 37 75 6 141 -8 18 -22
58 -30 88 -8 30 -24 82 -35 115 -128 376 -154 457 -166 497 -7 25 -20 61 -29
79 -9 18 -16 38 -16 46 0 14 -34 123 -49 158 -5 11 -21 59 -36 106 -21 69 -31
88 -51 98 -14 6 -31 11 -37 11 -7 0 -31 9 -52 21 -22 11 -77 31 -123 43 l-82
23 -48 -36z m316 -173 c11 -29 36 -105 57 -168 20 -63 40 -124 45 -135 4 -11
25 -74 45 -140 20 -66 42 -131 47 -145 6 -14 14 -34 19 -45 4 -11 13 -40 19
-65 10 -43 23 -82 40 -125 34 -85 101 -309 98 -327 -3 -20 -126 322 -162 452
-7 25 -20 61 -29 80 -9 19 -21 58 -28 85 -7 28 -20 67 -30 88 -10 21 -21 52
-24 70 -4 18 -36 118 -71 223 -69 206 -68 204 -55 204 5 0 18 -24 29 -52z
m-288 4 c0 -11 -160 -126 -166 -119 -3 2 8 12 23 22 15 10 51 38 81 62 55 45
62 49 62 35z m103 -52 c3 -11 2 -20 -3 -20 -8 0 -20 24 -20 41 0 17 17 1 23
-21z m-313 -110 c-24 -15 -37 -11 -16 5 11 8 22 12 25 9 3 -3 -1 -9 -9 -14z
m-60 -44 c0 -2 -7 -7 -16 -10 -8 -3 -12 -2 -9 4 6 10 25 14 25 6z m-571 -1073
c-1 -34 -2 -35 -9 -13 -11 36 -11 50 0 50 6 0 10 -17 9 -37z m20 -101 c1 -7
-3 -10 -9 -7 -5 3 -10 21 -9 38 1 31 1 31 9 7 4 -14 8 -31 9 -38z m8 -84 c-3
-8 -6 -5 -6 6 -1 11 2 17 5 13 3 -3 4 -12 1 -19z m10 -50 c-3 -8 -6 -5 -6 6
-1 11 2 17 5 13 3 -3 4 -12 1 -19z m1210 -368 c-70 -3 -131 -11 -136 -16 -5
-5 -11 -18 -14 -29 -3 -14 -5 -10 -6 11 0 17 2 34 6 37 3 4 67 6 142 5 l136
-1 -128 -7z m1982 -17 c8 -16 3 -18 -62 -18 -40 0 -144 -3 -232 -7 l-160 -7
135 14 c193 20 305 32 307 34 1 0 7 -7 12 -16z m-1048 -39 c113 -20 146 -31
132 -45 -6 -6 -50 0 -129 20 -65 17 -130 32 -144 34 -18 3 -16 5 11 6 19 0 78
-6 130 -15z m-166 -54 c17 -6 64 -18 105 -28 l75 -18 3 -213 2 -213 -22 5
c-13 3 -50 13 -83 22 -33 10 -86 23 -119 30 -32 7 -62 19 -67 27 -5 7 -9 102
-9 212 l0 199 43 -7 c23 -4 56 -11 72 -16z m1185 -22 c1 -28 55 -297 64 -319
6 -13 -3 -17 -51 -23 -32 -4 -103 -15 -158 -26 -55 -11 -154 -26 -220 -34 -66
-9 -155 -22 -198 -30 -43 -8 -107 -18 -141 -21 l-64 -7 -5 43 c-7 63 -36 269
-43 305 -5 29 -4 32 28 38 18 4 89 11 158 16 116 9 166 13 450 41 57 5 106 12
109 14 4 5 71 7 71 3z m-915 -48 c8 0 15 -20 18 -57 7 -68 24 -197 31 -233 3
-14 7 -53 10 -87 l4 -62 -31 5 c-18 3 -42 11 -54 17 -23 10 -23 13 -23 220 0
187 2 208 16 203 9 -3 21 -6 29 -6z m-1678 -126 c-3 -3 -12 -4 -19 -1 -8 3 -5
6 6 6 11 1 17 -2 13 -5z m50 -10 c-3 -3 -12 -4 -19 -1 -8 3 -5 6 6 6 11 1 17
-2 13 -5z m78 -24 c13 -5 14 -9 5 -9 -8 0 -24 4 -35 9 -13 5 -14 9 -5 9 8 0
24 -4 35 -9z m120 -34 l80 -24 2 -38 c1 -35 1 -36 -5 -9 -6 27 -15 33 -85 56
-71 24 -104 40 -81 39 5 -1 45 -11 89 -24z m-188 -22 c-3 -3 -12 -4 -19 -1 -8
3 -5 6 6 6 11 1 17 -2 13 -5z m793 -18 l85 -23 3 -213 2 -212 -25 6 c-47 12
-136 48 -131 53 2 3 30 -3 61 -12 32 -9 64 -14 71 -11 20 8 20 348 1 364 -7 6
-53 25 -102 41 -107 36 -85 40 35 7z m-618 -37 c27 -6 48 -14 48 -19 0 -10
-111 19 -125 33 -7 7 -3 8 10 3 11 -4 41 -12 67 -17z m-205 -5 c-3 -3 -12 -4
-19 -1 -8 3 -5 6 6 6 11 1 17 -2 13 -5z m-517 -26 c0 -6 -6 -5 -15 2 -8 7 -15
14 -15 16 0 2 7 1 15 -2 8 -4 15 -11 15 -16z m674 -30 c22 -6 45 -15 51 -20 5
-4 17 -8 27 -8 10 0 18 -7 18 -16 0 -12 -3 -14 -12 -6 -7 5 -44 21 -83 35 -73
27 -73 36 -1 15z m-577 -110 c-2 -18 -4 -6 -4 27 0 33 2 48 4 33 2 -15 2 -42
0 -60z m671 4 c3 -10 -151 48 -165 62 -4 3 31 -7 77 -23 47 -16 86 -34 88 -39z
m-260 2 c258 -81 316 -104 334 -127 15 -18 18 -45 18 -160 l0 -138 -42 3 -43
3 -7 87 c-6 69 -15 102 -40 154 -42 87 -77 111 -225 158 -65 21 -127 42 -138
46 -11 5 -33 13 -50 19 -30 11 -30 11 8 7 21 -3 104 -26 185 -52z m1392 6 c8
-5 53 -18 100 -31 47 -12 94 -25 105 -29 38 -15 127 -40 141 -40 17 0 15 12
19 -140 5 -202 -11 -231 -25 -47 -5 64 -13 125 -19 136 -7 11 -32 27 -59 35
-52 16 -163 57 -287 105 -70 27 -75 30 -35 25 24 -4 51 -10 60 -14z m1255 -20
c27 -53 12 -160 -23 -160 -14 0 -14 2 -3 9 22 14 27 106 7 136 -9 14 -23 25
-31 25 -8 0 -15 5 -15 10 0 6 11 10 25 10 17 0 29 -9 40 -30z m-2818 -66 c-3
-3 -12 -4 -19 -1 -8 3 -5 6 6 6 11 1 17 -2 13 -5z m53 -30 c0 -2 -9 0 -20 6
-11 6 -20 13 -20 16 0 2 9 0 20 -6 11 -6 20 -13 20 -16z m-260 -13 c0 -38 -16
-48 -30 -20 -14 25 -6 49 15 49 10 0 15 -10 15 -29z m2303 -6 c32 -68 13 -195
-30 -195 -14 0 -14 2 2 20 23 26 31 115 13 150 -8 14 -24 26 -36 28 -36 5 -26
32 13 32 15 0 27 -11 38 -35z m-1230 -32 c-7 -2 -19 -2 -25 0 -7 3 -2 5 12 5
14 0 19 -2 13 -5z m47 -13 c8 -5 11 -10 5 -10 -5 0 -17 5 -25 10 -8 5 -10 10
-5 10 6 0 17 -5 25 -10z m1758 -147 l-3 -156 -160 -33 c-88 -18 -189 -39 -225
-47 -36 -8 -66 -13 -68 -12 -8 7 -11 312 -3 324 6 9 78 23 212 42 112 16 209
31 214 33 34 14 36 8 33 -151z m-1732 7 c38 -12 78 -25 89 -30 11 -5 27 -11
35 -14 8 -4 -16 -4 -55 -2 -45 3 -62 1 -49 -4 31 -12 37 -26 22 -50 -13 -22
-25 -22 -98 -5 -18 5 -13 -1 18 -20 41 -27 42 -28 42 -84 0 -38 8 -72 24 -107
l23 -50 -123 50 c-108 43 -125 53 -139 82 -33 70 -8 186 50 232 35 27 74 28
161 2z m643 -29 c76 -39 148 -145 176 -259 28 -117 29 -122 7 -122 -16 0 -22
9 -27 43 -4 23 -21 77 -37 119 -40 105 -107 179 -183 203 -52 17 -64 17 -110
0 -11 -4 -7 2 10 14 39 27 112 28 164 2z m-1609 -47 c0 -13 -31 0 -40 17 -11
20 -11 20 14 4 14 -10 26 -19 26 -21z m1190 -79 c0 -5 -5 -3 -10 5 -5 8 -10
20 -10 25 0 6 5 3 10 -5 5 -8 10 -19 10 -25z m-915 -14 c19 -11 19 -11 -5 -9
-16 2 -26 10 -28 23 -2 12 0 16 5 9 4 -6 17 -16 28 -23z m1682 -3 c-3 -8 -6
-5 -6 6 -1 11 2 17 5 13 3 -3 4 -12 1 -19z m-402 -20 c32 -14 91 -102 99 -148
l6 -35 -15 30 c-8 17 -14 35 -15 40 -1 13 -50 67 -80 88 -15 10 -44 17 -75 17
-36 0 -46 3 -35 10 21 13 84 12 115 -2z m1230 -58 c-16 -4 -43 -8 -60 -8 -29
1 -29 1 5 8 19 4 46 7 60 8 22 0 22 -1 -5 -8z m125 -88 c0 -36 -2 -40 -39 -50
-53 -16 -51 -17 -51 32 0 41 2 45 28 49 62 9 62 9 62 -31z m-832 -158 c21 -14
30 -58 15 -67 -5 -3 -29 -8 -55 -12 l-48 -7 0 45 c0 27 5 47 13 50 24 10 53 7
75 -9z m-633 -74 c20 -40 48 -54 78 -40 l22 11 -22 -20 c-14 -12 -31 -17 -44
-14 -21 6 -59 57 -59 81 0 20 8 14 25 -18z"/>
<path d="M4459 3256 c-6 -6 -160 -22 -378 -40 -106 -8 -146 -15 -149 -25 -4
-11 39 -12 269 -6 151 4 278 8 283 9 6 0 16 -17 23 -39 13 -40 27 -74 44 -107
5 -10 9 -25 9 -33 0 -8 5 -15 10 -15 12 0 12 10 0 70 -5 25 -15 77 -22 115
l-13 70 -35 3 c-20 2 -38 1 -41 -2z"/>
<path d="M3805 3180 c-4 -6 11 -10 37 -9 33 0 38 2 23 9 -28 12 -53 12 -60 0z"/>
<path d="M4248 2561 c-98 -16 -136 -31 -80 -31 17 0 33 4 37 10 3 5 18 9 33 9
50 -2 142 14 136 22 -6 11 -3 11 -126 -10z"/>
<path d="M4318 2488 c17 -8 26 -8 34 0 9 9 4 12 -22 11 -33 0 -34 -1 -12 -11z"/>
<path d="M4225 2480 c-4 -6 8 -10 29 -10 20 0 36 5 36 10 0 6 -13 10 -29 10
-17 0 -33 -4 -36 -10z"/>
<path d="M4150 2460 c0 -5 11 -10 24 -10 14 0 28 5 31 10 4 6 -7 10 -24 10
-17 0 -31 -4 -31 -10z"/>
<path d="M4088 2443 c7 -3 16 -2 19 1 4 3 -2 6 -13 5 -11 0 -14 -3 -6 -6z"/>
<path d="M4355 2430 c3 -5 12 -10 20 -10 8 0 17 5 20 10 4 6 -5 10 -20 10 -15
0 -24 -4 -20 -10z"/>
<path d="M4270 2420 c0 -5 14 -10 30 -10 17 0 30 5 30 10 0 6 -13 10 -30 10
-16 0 -30 -4 -30 -10z"/>
<path d="M4195 2400 c-4 -6 6 -10 24 -10 16 0 33 5 36 10 4 6 -6 10 -24 10
-16 0 -33 -4 -36 -10z"/>
<path d="M4133 2383 c9 -2 25 -2 35 0 9 3 1 5 -18 5 -19 0 -27 -2 -17 -5z"/>
<path d="M4360 2370 c0 -5 4 -10 9 -10 6 0 13 5 16 10 3 6 -1 10 -9 10 -9 0
-16 -4 -16 -10z"/>
<path d="M4290 2360 c-8 -5 -30 -10 -47 -10 -18 0 -33 -4 -33 -10 0 -5 -13
-10 -30 -10 -16 0 -30 -5 -30 -11 0 -7 10 -9 28 -4 34 10 98 25 136 32 20 4
24 8 15 14 -18 11 -21 11 -39 -1z"/>
<path d="M304 1406 c-3 -7 -4 -42 -2 -77 3 -64 3 -64 33 -65 17 -1 166 -2 333
-2 260 -2 302 -4 302 -17 0 -13 -46 -15 -332 -17 l-333 -3 0 -160 0 -160 343
-3 c322 -2 346 -1 387 17 59 26 85 69 85 142 0 43 -5 60 -20 74 l-20 18 20 22
c15 16 20 35 20 81 0 72 -22 113 -76 140 -36 17 -66 19 -387 21 -280 2 -349 0
-353 -11z m666 -336 c0 -19 -7 -20 -260 -20 -253 0 -260 1 -260 20 0 19 7 20
260 20 253 0 260 -1 260 -20z"/>
<path d="M1330 1411 c-42 -9 -77 -26 -107 -54 -27 -24 -32 -82 -7 -91 28 -11
764 -7 785 4 15 9 19 22 19 71 0 55 -2 60 -26 69 -29 11 -609 12 -664 1z"/>
<path d="M2225 1413 c-11 -2 -37 -11 -58 -20 -58 -25 -101 -112 -62 -126 20
-8 724 -9 763 -1 l33 7 -3 71 -3 71 -325 1 c-179 1 -334 0 -345 -3z"/>
<path d="M3003 1410 c-20 -8 -23 -17 -23 -68 0 -68 8 -77 67 -81 69 -4 83 10
83 79 0 48 -4 61 -19 70 -24 12 -78 12 -108 0z"/>
<path d="M3211 1407 c-15 -15 -14 -120 1 -135 8 -8 60 -12 170 -12 l157 0 0
-171 c-1 -97 3 -175 8 -180 6 -6 37 -9 69 -7 l59 3 3 177 2 178 168 2 167 3 0
75 0 75 -397 1 c-269 1 -400 -2 -407 -9z"/>
<path d="M4105 1411 c-3 -2 -5 -97 -5 -211 0 -235 1 -239 83 -279 41 -20 60
-21 325 -21 297 0 317 3 368 47 41 36 44 55 44 257 0 219 1 216 -75 216 -74 0
-75 -2 -75 -175 l0 -155 -26 -17 c-22 -14 -56 -18 -176 -21 -177 -5 -270 3
-298 26 -18 15 -20 31 -23 170 -2 83 -7 155 -11 159 -7 8 -124 12 -131 4z"/>
<path d="M5322 1396 c-10 -11 -33 -42 -50 -67 -40 -60 -30 -70 63 -68 50 1 70
-2 83 -15 15 -15 8 -16 -94 -16 l-110 0 -36 -47 c-85 -114 -180 -262 -174
-272 4 -6 35 -11 69 -11 l62 0 70 95 70 94 127 1 c125 0 127 0 145 -25 10 -14
42 -57 71 -95 l53 -70 60 0 c44 0 61 4 65 15 5 13 -55 109 -204 323 -18 26
-51 75 -73 110 -22 34 -46 62 -52 63 -96 9 -127 6 -145 -15z"/>
<path d="M1207 1223 c-4 -3 -7 -60 -7 -126 0 -118 0 -119 29 -146 16 -15 47
-33 69 -39 56 -17 693 -17 710 0 16 16 16 127 -1 134 -7 2 -159 5 -337 7 -300
2 -325 3 -328 20 -3 16 18 17 325 17 243 0 332 3 341 12 16 16 16 100 0 116
-9 9 -112 12 -403 12 -216 0 -395 -3 -398 -7z"/>
<path d="M2097 1223 c-12 -11 -8 -44 9 -72 32 -55 71 -61 377 -61 270 0 277 0
277 -20 0 -20 -7 -20 -329 -20 -237 0 -332 -3 -337 -11 -4 -7 -8 -36 -10 -65
-2 -44 0 -56 16 -64 11 -6 147 -10 350 -10 357 0 373 2 425 54 23 23 25 32 25
116 0 84 -2 93 -25 114 -45 42 -83 46 -437 46 -184 0 -338 -3 -341 -7z"/>
<path d="M2984 1217 c-2 -7 -3 -80 -2 -162 l3 -150 58 -3 c35 -2 64 2 73 9 11
9 14 44 14 159 0 168 4 160 -86 160 -35 0 -56 -5 -60 -13z"/>
</g>
</svg>
